HIERARCHY
ROOT Hips
{
	OFFSET 0.000000 0.000000 0.000000
	CHANNELS 6 Xposition Yposition Zposition Yrotation Xrotation Zrotation
	JOINT Spine
	{
		OFFSET 0.000000 1.133508 0.000001
		CHANNELS 6 Xposition Yposition Zposition Yrotation Xrotation Zrotation
		JOINT Spine1
		{
			OFFSET 0.000000 2.564898 0.000002
			CHANNELS 6 Xposition Yposition Zposition Yrotation Xrotation Zrotation
			JOINT Neck
			{
				OFFSET 0.000000 2.841363 0.000002
				CHANNELS 6 Xposition Yposition Zposition Yrotation Xrotation Zrotation
				JOINT Head
				{
					OFFSET 0.000000 2.142607 0.276467
					CHANNELS 6 Xposition Yposition Zposition Yrotation Xrotation Zrotation
					End Site
					{
						OFFSET 0.000000 2.764654 0.000002
					}
				}
			}
			JOINT LeftShoulder
			{
				OFFSET 0.551778 2.318355 -0.060299
				CHANNELS 6 Xposition Yposition Zposition Yrotation Xrotation Zrotation
				JOINT LeftArm
				{
					OFFSET 1.599219 0.000000 0.000000
					CHANNELS 6 Xposition Yposition Zposition Yrotation Xrotation Zrotation
					JOINT LeftForeArm
					{
						OFFSET 4.147210 0.000000 0.000000
						CHANNELS 6 Xposition Yposition Zposition Yrotation Xrotation Zrotation
						JOINT LeftHand
						{
							OFFSET 3.709151 0.000000 0.000000
							CHANNELS 6 Xposition Yposition Zposition Yrotation Xrotation Zrotation
							End Site
							{
								OFFSET 2.073491 0.000000 0.000000
							}
						}
					}
				}
			}
			JOINT RightShoulder
			{
				OFFSET -0.552905 2.318355 -0.060299
				CHANNELS 6 Xposition Yposition Zposition Yrotation Xrotation Zrotation
				JOINT RightArm
				{
					OFFSET -1.599219 0.000000 0.000000
					CHANNELS 6 Xposition Yposition Zposition Yrotation Xrotation Zrotation
					JOINT RightForeArm
					{
						OFFSET -4.147210 0.000000 0.000000
						CHANNELS 6 Xposition Yposition Zposition Yrotation Xrotation Zrotation
						JOINT RightHand
						{
							OFFSET -3.709151 0.000000 0.000000
							CHANNELS 6 Xposition Yposition Zposition Yrotation Xrotation Zrotation
							End Site
							{
								OFFSET -2.073491 0.000000 0.000000
							}
						}
					}
				}
			}
		}
	}
	JOINT LeftUpLeg
	{
		OFFSET 1.382327 0.000000 0.000000
		CHANNELS 6 Xposition Yposition Zposition Yrotation Xrotation Zrotation
		JOINT LeftLeg
		{
			OFFSET 0.000000 -7.194597 -0.000005
			CHANNELS 6 Xposition Yposition Zposition Yrotation Xrotation Zrotation
			JOINT LeftFoot
			{
				OFFSET 0.000000 -5.779614 -0.000004
				CHANNELS 6 Xposition Yposition Zposition Yrotation Xrotation Zrotation
				JOINT LeftToeBase
				{
					OFFSET 0.000000 -0.898512 2.073490
					CHANNELS 6 Xposition Yposition Zposition Yrotation Xrotation Zrotation
					End Site
					{
						OFFSET 0.000000 0.000000 0.552931
					}
				}
			}
		}
	}
	JOINT RightUpLeg
	{
		OFFSET -1.382327 0.000000 0.000000
		CHANNELS 6 Xposition Yposition Zposition Yrotation Xrotation Zrotation
		JOINT RightLeg
		{
			OFFSET 0.000000 -7.194597 -0.000005
			CHANNELS 6 Xposition Yposition Zposition Yrotation Xrotation Zrotation
			JOINT RightFoot
			{
				OFFSET 0.000000 -5.779614 -0.000004
				CHANNELS 6 Xposition Yposition Zposition Yrotation Xrotation Zrotation
				JOINT RightToeBase
				{
					OFFSET 0.000000 -0.898512 2.073490
					CHANNELS 6 Xposition Yposition Zposition Yrotation Xrotation Zrotation
					End Site
					{
						OFFSET 0.000000 0.000000 0.552931
					}
				}
			}
		}
	}
}
MOTION
Frames: 6
Frame Time: 0.041667
0.034685 11.369954 -1.806404 -0.546857 3.147289 -1.285811 -0.000000 1.133507 0.000001 -4.089027 11.038808 -2.511389 -0.000000 2.564903 0.000002 -1.674048 10.599492 -4.267407 0.000001 2.841358 0.000003 -17.916107 11.064741 -6.784361 -0.000001 2.142606 0.276469 -18.429934 15.234626 22.444265 0.551778 2.318352 -0.060299 -17.328972 1.863885 -1.024573 1.599218 0.000002 0.000002 -64.492238 43.698058 -48.813750 4.147208 0.000000 -0.000005 -60.758460 37.369307 71.919843 3.709155 0.000007 -0.000000 -11.172147 -8.300748 33.453334 -0.552905 2.318354 -0.060301 7.685621 -1.657649 -2.429387 -1.599218 0.000000 0.000002 31.328756 22.686642 29.767132 -4.147210 0.000001 -0.000001 -2.479870 -11.268879 -3.559199 -3.709149 -0.000002 0.000002 -3.056391 -11.745898 -20.903442 1.382327 0.000000 0.000000 -14.140326 -13.372815 38.737886 -0.000001 -7.194593 -0.000005 15.136953 43.228441 -25.678988 -0.000001 -5.779615 -0.000003 25.652871 -15.550285 -8.849717 -0.000001 -0.898512 2.073488 -0.000004 -0.000000 -0.000003 -1.382327 0.000000 0.000000 2.186516 -18.332235 -34.467498 0.000000 -7.194596 -0.000005 1.980272 39.718236 35.457715 0.000002 -5.779618 -0.000004 -34.114196 -20.865985 7.700517 -0.000000 -0.898512 2.073489 -0.000001 -0.000003 0.000002 
0.033498 11.369956 -1.805019 -0.545425 3.151847 -1.291223 -0.000000 1.133510 0.000001 -4.084855 11.052049 -2.516531 0.000000 2.564899 0.000002 -1.673413 10.614479 -4.272317 0.000000 2.841362 0.000004 -17.914357 11.066187 -6.776249 -0.000001 2.142610 0.276467 -18.429633 15.225258 22.430522 0.551778 2.318356 -0.060298 -17.326250 1.862711 -1.021255 1.599218 0.000004 0.000002 -64.516813 43.706493 -48.840401 4.147211 0.000001 -0.000003 -60.743891 37.373279 71.937663 3.709154 0.000001 -0.000001 -11.169828 -8.304775 33.394697 -0.552905 2.318356 -0.060297 7.681902 -1.657423 -2.418271 -1.599220 0.000004 0.000001 31.345490 22.702451 29.772651 -4.147212 -0.000000 -0.000003 -2.466069 -11.303115 -3.553839 -3.709151 -0.000001 0.000002 -3.035068 -11.778512 -20.969297 1.382326 0.000002 -0.000000 -14.140647 -13.368594 38.743982 -0.000000 -7.194599 -0.000004 15.074040 43.201138 -25.713874 -0.000002 -5.779617 -0.000004 25.704505 -15.539408 -8.882802 -0.000000 -0.898512 2.073490 -0.000004 0.000000 -0.000003 -1.382327 -0.000000 -0.000000 2.180264 -18.335446 -34.457253 -0.000000 -7.194600 -0.000005 1.990346 39.723783 35.467192 0.000002 -5.779617 -0.000004 -34.121422 -20.874433 7.700610 -0.000001 -0.898512 2.073488 0.000001 0.000000 0.000002 
0.032090 11.370366 -1.804265 -0.537292 3.165283 -1.296417 0.000000 1.133510 0.000000 -4.085722 11.062766 -2.508232 -0.000000 2.564901 0.000001 -1.671908 10.611385 -4.252598 0.000000 2.841364 0.000002 -17.912890 11.068968 -6.768329 0.000000 2.142606 0.276466 -18.430738 15.210821 22.391524 0.551778 2.318355 -0.060298 -17.315535 1.873210 -1.030639 1.599219 0.000003 0.000002 -64.575026 43.711954 -48.877363 4.147210 -0.000000 0.000001 -60.683246 37.358010 71.999141 3.709151 0.000006 0.000000 -11.191221 -8.315474 33.364842 -0.552905 2.318355 -0.060298 7.690329 -1.641491 -2.427339 -1.599220 -0.000001 -0.000000 31.359929 22.715818 29.785389 -4.147210 -0.000004 0.000002 -2.485061 -11.292720 -3.535022 -3.709153 -0.000001 -0.000001 -3.052197 -11.772743 -21.031790 1.382327 0.000001 -0.000000 -14.148154 -13.377936 38.752004 0.000000 -7.194599 -0.000004 15.080158 43.198990 -25.696213 -0.000001 -5.779617 -0.000005 25.699497 -15.534644 -8.869254 0.000000 -0.898512 2.073490 0.000002 0.000001 -0.000000 -1.382327 0.000001 -0.000000 2.172973 -18.346740 -34.442202 -0.000001 -7.194596 -0.000005 1.960146 39.746356 35.442729 0.000002 -5.779618 -0.000003 -34.105628 -20.878452 7.712759 0.000001 -0.898512 2.073488 0.000002 0.000001 0.000002 
0.030677 11.370401 -1.802990 -0.532787 3.166831 -1.295431 0.000000 1.133510 0.000001 -4.079231 11.065667 -2.498302 -0.000000 2.564895 0.000002 -1.669123 10.620218 -4.238794 -0.000000 2.841362 0.000003 -17.908093 11.053788 -6.771573 -0.000001 2.142614 0.276464 -18.427096 15.214960 22.378235 0.551778 2.318352 -0.060297 -17.314449 1.867736 -1.042856 1.599219 -0.000001 0.000003 -64.566331 43.712087 -48.874119 4.147213 -0.000000 -0.000002 -60.711660 37.371489 71.966882 3.709154 -0.000001 -0.000002 -11.184115 -8.299915 33.359921 -0.552906 2.318355 -0.060298 7.685350 -1.647873 -2.438657 -1.599220 0.000005 -0.000000 31.454664 22.806382 29.849474 -4.147212 0.000000 -0.000005 -2.539973 -11.347731 -3.551796 -3.709153 -0.000002 0.000001 -3.022810 -11.818976 -20.982360 1.382327 0.000002 -0.000000 -14.146650 -13.374586 38.748486 0.000000 -7.194597 -0.000005 15.080914 43.189065 -25.683402 -0.000002 -5.779617 -0.000005 25.710099 -15.513036 -8.921379 -0.000001 -0.898512 2.073489 0.000008 -0.000001 -0.000001 -1.382327 0.000003 -0.000000 2.169797 -18.346875 -34.433678 0.000002 -7.194596 -0.000004 1.919346 39.779923 35.407776 0.000002 -5.779615 -0.000003 -34.079157 -20.868082 7.667242 -0.000000 -0.898512 2.073491 0.000005 0.000004 0.000001 
0.029540 11.370498 -1.802104 -0.536385 3.175865 -1.297412 -0.000000 1.133507 0.000001 -4.068625 11.066446 -2.485634 0.000000 2.564895 0.000002 -1.663836 10.613146 -4.218551 -0.000001 2.841368 0.000003 -17.909296 11.045528 -6.775091 -0.000003 2.142609 0.276469 -18.428834 15.219495 22.358882 0.551777 2.318358 -0.060298 -17.316170 1.865612 -1.048941 1.599220 0.000000 0.000003 -64.660042 43.737000 -48.954459 4.147209 -0.000001 -0.000005 -60.628618 37.350627 72.057143 3.709151 -0.000001 -0.000002 -11.172326 -8.324514 33.403795 -0.552906 2.318357 -0.060297 7.674610 -1.621748 -2.444074 -1.599220 -0.000000 0.000003 31.483545 22.817884 29.848886 -4.147211 -0.000002 0.000000 -2.550507 -11.352540 -3.538424 -3.709151 -0.000002 -0.000000 -3.018260 -11.821748 -20.938310 1.382327 -0.000001 -0.000000 -14.146412 -13.372599 38.755323 0.000000 -7.194597 -0.000005 15.055894 43.173793 -25.698705 -0.000001 -5.779616 -0.000005 25.722013 -15.520095 -8.910515 -0.000001 -0.898512 2.073490 0.000002 -0.000002 -0.000004 -1.382327 -0.000003 -0.000001 2.172124 -18.356543 -34.427688 0.000001 -7.194597 -0.000005 1.934122 39.784452 35.419496 0.000002 -5.779615 -0.000004 -34.078874 -20.897872 7.712079 -0.000002 -0.898512 2.073489 0.000001 -0.000002 -0.000000 
0.028399 11.370409 -1.800676 -0.526428 3.177526 -1.289929 0.000000 1.133513 0.000001 -4.066860 11.069853 -2.472640 -0.000000 2.564897 0.000002 -1.662968 10.617008 -4.209750 -0.000000 2.841365 0.000002 -17.906574 11.036998 -6.780965 -0.000003 2.142608 0.276468 -18.427196 15.219921 22.350437 0.551778 2.318357 -0.060300 -17.313198 1.863161 -1.055950 1.599218 0.000000 0.000003 -64.642884 43.728101 -48.944599 4.147208 -0.000001 -0.000003 -60.677666 37.364622 72.005651 3.709153 0.000003 -0.000001 -11.174967 -8.304217 33.442327 -0.552905 2.318357 -0.060297 7.666933 -1.622678 -2.453095 -1.599219 0.000001 0.000001 31.622232 22.982740 29.933482 -4.147210 -0.000001 -0.000001 -2.587148 -11.445590 -3.572988 -3.709152 -0.000001 -0.000000 -3.020551 -11.911123 -20.861023 1.382327 0.000003 -0.000001 -14.139157 -13.383943 38.734764 -0.000000 -7.194596 -0.000004 15.104463 43.186296 -25.627152 -0.000001 -5.779614 -0.000004 25.685992 -15.528257 -8.891632 -0.000001 -0.898512 2.073490 -0.000000 0.000001 -0.000002 -1.382327 0.000004 -0.000000 2.145895 -18.363892 -34.429170 -0.000001 -7.194594 -0.000005 1.992018 39.774538 35.451960 -0.000000 -5.779615 -0.000004 -34.118694 -20.889143 7.663777 -0.000001 -0.898512 2.073488 -0.000006 0.000002 0.000001 
